<?xml version="1.0" standalone="no"?><!DOCTYPE svg PUBLIC "-//W3C//DTD SVG 1.1//EN" "http://www.w3.org/Graphics/SVG/1.1/DTD/svg11.dtd"><svg class="icon" width="200px" height="200.00px" viewBox="0 0 1024 1024" version="1.1" xmlns="http://www.w3.org/2000/svg"><path fill="#000000" d="M831.687805 128.874146c35.311516 0 63.937561 28.626045 63.937561 63.937561v639.37561c0 35.311516-28.626045 63.937561-63.937561 63.937561H192.312195c-35.311516 0-63.937561-28.626045-63.937561-63.937561V192.811707c0-35.311516 28.626045-63.937561 63.937561-63.937561h639.37561z m0.495516 33.96683H192.312195c-16.386997 0-29.701994 13.151157-29.970732 29.475215V832.187317c0 16.386997 13.151157 29.701994 29.475216 29.970732H831.687805c16.386997 0 29.701994-13.151157 29.970732-29.475216V192.811707c0-16.386997-13.151157-29.701994-29.475216-29.970731zM397.112195 320.686829c13.109198 0 23.761795 10.520726 23.973588 23.579973L421.08878 344.663415v89.912195c0 13.109198-10.520726 23.761795-23.579972 23.973588L397.112195 458.552195h-44.956097c-38.070821 0-68.932683-30.861861-68.932683-68.932683 0-37.690193 30.24846-68.314287 67.792796-68.922692L352.156098 320.686829h44.956097z m274.731707 0l1.139887 0.009991C710.528125 321.304226 740.776585 351.92832 740.776585 389.619512c0 37.690193-30.24846 68.314287-67.792796 68.922693L671.843902 458.552195h-44.956097l-0.396613-0.002997c-12.927376-0.209795-23.369179-10.652597-23.576975-23.580972L602.91122 434.57561v-89.912195l0.002997-0.396613c0.209795-12.927376 10.652597-23.369179 23.580971-23.576976L626.887805 320.686829h44.956097z m-284.721951 33.96683h-34.965853c-19.11833 0-34.65216 15.343017-34.960859 34.387418L317.190244 389.619512c0 19.11833 15.343017 34.65216 34.387418 34.960859L352.156098 424.585366h34.965853v-69.931707z m284.721951 0h-34.965853v69.931707h34.965853l0.578436-0.004995c18.853588-0.305701 34.079719-15.53383 34.382423-34.388418L706.809756 389.619512l-0.004995-0.578435c-0.305701-18.853588-15.53383-34.079719-34.388418-34.382423L671.843902 354.653659z"  /><path fill="#000000" d="M495.016585 320.686829m7.992195 0l17.98244 0q7.992195 0 7.992195 7.992195l0 121.880976q0 7.992195-7.992195 7.992195l-17.98244 0q-7.992195 0-7.992195-7.992195l0-121.880976q0-7.992195 7.992195-7.992195Z"  /><path fill="#000000" d="M317.62193 579.083762m7.243389-3.377648l16.297624-7.599707q7.243389-3.377648 10.621036 3.865741l51.509126 110.461677q3.377648 7.243389-3.865741 10.621037l-16.297624 7.599707q-7.243389 3.377648-10.621036-3.865741l-51.509126-110.461678q-3.377648-7.243389 3.865741-10.621036Z"  /><path fill="#000000" d="M675.593668 564.728759m7.243389 3.377648l16.297624 7.599707q7.243389 3.377648 3.865741 10.621036l-51.509126 110.461678q-3.377648 7.243389-10.621036 3.865741l-16.297624-7.599707q-7.243389-3.377648-3.865741-10.621037l51.509126-110.461677q3.377648-7.243389 10.621036-3.865741Z"  /></svg>