<?xml version="1.0" standalone="no"?><!DOCTYPE svg PUBLIC "-//W3C//DTD SVG 1.1//EN" "http://www.w3.org/Graphics/SVG/1.1/DTD/svg11.dtd"><svg class="icon" width="200px" height="200.00px" viewBox="0 0 1024 1024" version="1.1" xmlns="http://www.w3.org/2000/svg"><path fill="#000000" d="M817.152 244.352H235.648c-35.328 0-64 28.672-64 64v328.96c0 35.328 28.672 64 64 64h581.376c35.328 0 64-28.672 64-64v-328.96c0.128-35.328-28.672-64-63.872-64z m12.8 392.96c0 7.04-5.76 12.8-12.8 12.8H235.648c-7.04 0-12.8-5.76-12.8-12.8v-328.96c0-7.04 5.76-12.8 12.8-12.8h581.376c7.04 0 12.8 5.76 12.8 12.8v328.96zM325.888 791.808H727.04v51.2H325.888z" /></svg>