<?xml version="1.0" standalone="no"?><!DOCTYPE svg PUBLIC "-//W3C//DTD SVG 1.1//EN" "http://www.w3.org/Graphics/SVG/1.1/DTD/svg11.dtd"><svg class="icon" width="200px" height="200.00px" viewBox="0 0 1024 1024" version="1.1" xmlns="http://www.w3.org/2000/svg"><path fill="#000000" d="M640 512a128 128 0 1 0-128 128 128 128 0 0 0 128-128z m-128 85.333333a85.333333 85.333333 0 1 1 85.333333-85.333333 85.333333 85.333333 0 0 1-85.333333 85.333333zM738.986667 531.626667a18.346667 18.346667 0 0 0-21.333334 15.36 208.213333 208.213333 0 0 1-170.666666 170.666666 18.346667 18.346667 0 0 0-15.786667 18.346667v3.413333a18.773333 18.773333 0 0 0 21.76 15.36A245.76 245.76 0 0 0 754.773333 554.666667a19.2 19.2 0 0 0-15.786666-23.04zM814.933333 522.24a19.2 19.2 0 0 0-20.48 17.066667 285.013333 285.013333 0 0 1-246.613333 256 18.346667 18.346667 0 0 0-16.64 18.773333v2.133333a19.2 19.2 0 0 0 20.906667 16.64 323.413333 323.413333 0 0 0 279.893333-288.853333 19.626667 19.626667 0 0 0-17.066667-21.76zM287.573333 531.2h-3.413333a18.773333 18.773333 0 0 0-15.36 23.466667 245.76 245.76 0 0 0 200.533333 200.106666 19.2 19.2 0 0 0 21.76-15.786666 18.346667 18.346667 0 0 0-15.36-21.333334 208.213333 208.213333 0 0 1-170.666666-170.666666 18.346667 18.346667 0 0 0-17.493334-15.786667zM484.693333 794.453333a285.013333 285.013333 0 0 1-256-246.613333 18.346667 18.346667 0 0 0-18.773333-16.64h-1.28a19.2 19.2 0 0 0-16.64 20.906667 323.413333 323.413333 0 0 0 288.853333 279.893333 19.626667 19.626667 0 0 0 20.906667-17.066667 19.2 19.2 0 0 0-17.066667-20.48zM492.8 287.573333v-3.413333A18.773333 18.773333 0 0 0 469.333333 268.8 245.76 245.76 0 0 0 269.226667 469.333333a19.2 19.2 0 0 0 15.786666 21.76 18.346667 18.346667 0 0 0 21.333334-15.36 208.213333 208.213333 0 0 1 170.666666-170.666666 18.346667 18.346667 0 0 0 15.786667-17.493334zM209.066667 501.76a19.2 19.2 0 0 0 20.48-17.066667 285.013333 285.013333 0 0 1 246.613333-256 18.346667 18.346667 0 0 0 16.64-18.773333v-1.28a19.2 19.2 0 0 0-20.906667-16.64 323.413333 323.413333 0 0 0-279.893333 288.853333 19.626667 19.626667 0 0 0 17.066667 20.906667zM554.666667 269.226667a19.2 19.2 0 0 0-21.76 15.786666 18.346667 18.346667 0 0 0 15.36 21.333334 208.213333 208.213333 0 0 1 170.666666 170.666666 18.346667 18.346667 0 0 0 18.346667 15.786667h3.413333a18.773333 18.773333 0 0 0 14.506667-23.466667A245.76 245.76 0 0 0 554.666667 269.226667zM539.306667 229.546667a285.013333 285.013333 0 0 1 256 246.613333 18.346667 18.346667 0 0 0 18.773333 16.64h2.133333a19.2 19.2 0 0 0 16.64-20.906667 323.413333 323.413333 0 0 0-289.706666-279.893333 19.626667 19.626667 0 0 0-20.906667 17.066667 19.2 19.2 0 0 0 17.066667 20.48zM512 85.333333a426.666667 426.666667 0 1 0 426.666667 426.666667A426.666667 426.666667 0 0 0 512 85.333333z m0 810.666667a384 384 0 1 1 384-384 384 384 0 0 1-384 384z" /></svg>