<?xml version="1.0" standalone="no"?><!DOCTYPE svg PUBLIC "-//W3C//DTD SVG 1.1//EN" "http://www.w3.org/Graphics/SVG/1.1/DTD/svg11.dtd"><svg class="icon" width="200px" height="200.00px" viewBox="0 0 1024 1024" version="1.1" xmlns="http://www.w3.org/2000/svg"><path fill="#000000" d="M678.4 371.2v358.4H345.6V371.2h-38.4V768h185.6v83.2h38.4V768h185.6V371.2zM640 300.8h-57.6v-128h-38.4v128h-64v-128h-38.4v128H384v38.4h256zM640 339.2h38.4v38.4H640zM467.2 537.6h19.2v32h12.8v12.8H512v12.8h-12.8v12.8h-12.8v32h-19.2v25.6h19.2v-12.8h12.8V640H512v-12.8h12.8v-19.2h19.2v-12.8h12.8v-12.8h12.8v-12.8h-12.8v-19.2h-12.8v-12.8h-19.2v-12.8H512V512h12.8v-19.2h19.2v-25.6h12.8v-12.8h12.8v-32h-12.8v12.8h-12.8v19.2h-19.2v12.8H512v12.8h-12.8v12.8h-32V512h-12.8v12.8h12.8zM345.6 339.2H384v38.4h-38.4z" /></svg>