<?xml version="1.0" standalone="no"?><!DOCTYPE svg PUBLIC "-//W3C//DTD SVG 1.1//EN" "http://www.w3.org/Graphics/SVG/1.1/DTD/svg11.dtd"><svg class="icon" width="200px" height="200.00px" viewBox="0 0 1024 1024" version="1.1" xmlns="http://www.w3.org/2000/svg"><path fill="#000000" d="M512 961.933c-198.81 0-359.978-152.888-359.978-359.978v-539.955h224.978v539.977c0 86.288 19.035 180 135 180 115.987 0 135-93.713 135-180v-539.977h225v539.977c0 207.068-161.19 359.955-360 359.955zM332.023 107h-135v90h135v-90zM827 107h-135v90h135v-90zM827 242h-135v359.977c0 103.545-37.44 225-180 225-144.787 0-179.977-121.455-179.977-225v-359.977h-135v359.977c0 172.575 149.31 314.977 314.978 314.977 165.69 0 315-142.402 315-314.977v-359.977z" /></svg>