<?xml version="1.0" standalone="no"?><!DOCTYPE svg PUBLIC "-//W3C//DTD SVG 1.1//EN" "http://www.w3.org/Graphics/SVG/1.1/DTD/svg11.dtd"><svg class="icon" width="200px" height="200.00px" viewBox="0 0 1024 1024" version="1.1" xmlns="http://www.w3.org/2000/svg"><path fill="#000000" d="M270.686316 1024a242.526316 242.526316 0 0 1-242.526316-242.526316V242.526316a242.526316 242.526316 0 0 1 485.052632 0v538.947368a242.526316 242.526316 0 0 1-242.526316 242.526316zM270.686316 53.894737a188.631579 188.631579 0 0 0-188.631579 188.631579v538.947368a188.631579 188.631579 0 0 0 377.263158 0V242.526316a188.631579 188.631579 0 0 0-188.631579-188.631579zM728.791579 804.648421a26.947368 26.947368 0 0 1-13.473684-3.503158 26.947368 26.947368 0 0 1-9.970527-36.917895 500.682105 500.682105 0 0 0 0-504.454736 26.947368 26.947368 0 0 1 9.970527-36.917895 26.947368 26.947368 0 0 1 36.648421 9.970526 554.307368 554.307368 0 0 1 0 558.349474 26.947368 26.947368 0 0 1-23.174737 13.473684zM875.115789 889.263158a24.252632 24.252632 0 0 1-13.473684-3.772632 26.947368 26.947368 0 0 1-9.970526-36.648421 673.684211 673.684211 0 0 0 0-673.68421 26.947368 26.947368 0 0 1 9.970526-36.648421 26.947368 26.947368 0 0 1 36.648421 9.701052 727.578947 727.578947 0 0 1 0 727.578948 26.947368 26.947368 0 0 1-23.174737 13.473684zM728.791579 804.648421a26.947368 26.947368 0 0 1-13.473684-3.503158 26.947368 26.947368 0 0 1-9.970527-36.917895 500.682105 500.682105 0 0 0 0-504.454736 26.947368 26.947368 0 0 1 9.970527-36.917895 26.947368 26.947368 0 0 1 36.648421 9.970526 554.307368 554.307368 0 0 1 0 558.349474 26.947368 26.947368 0 0 1-23.174737 13.473684zM580.311579 719.225263a26.947368 26.947368 0 0 1-13.473684-3.772631 26.947368 26.947368 0 0 1-9.701053-36.648421 331.722105 331.722105 0 0 0 0-333.608422 26.947368 26.947368 0 0 1 46.618947-26.947368 385.077895 385.077895 0 0 1 0 387.503158 26.947368 26.947368 0 0 1-23.44421 13.473684zM273.92 350.315789a98.627368 98.627368 0 1 1 98.357895-98.627368A98.627368 98.627368 0 0 1 273.92 350.315789z m0-143.090526a44.732632 44.732632 0 1 0 44.463158 44.463158 44.463158 44.463158 0 0 0-44.463158-45.002105zM273.92 609.28A98.357895 98.357895 0 1 1 372.277895 512a98.357895 98.357895 0 0 1-98.357895 97.28z m0-142.821053A44.463158 44.463158 0 1 0 318.383158 512a44.463158 44.463158 0 0 0-44.463158-45.541053zM273.92 869.052632a98.357895 98.357895 0 1 1 98.357895-98.357895 98.627368 98.627368 0 0 1-98.357895 98.357895z m0-142.821053a44.463158 44.463158 0 1 0 44.463158 44.463158A44.463158 44.463158 0 0 0 273.92 727.578947z" /></svg>