<?xml version="1.0" standalone="no"?><!DOCTYPE svg PUBLIC "-//W3C//DTD SVG 1.1//EN" "http://www.w3.org/Graphics/SVG/1.1/DTD/svg11.dtd"><svg class="icon" width="200px" height="200.00px" viewBox="0 0 1024 1024" version="1.1" xmlns="http://www.w3.org/2000/svg"><path fill="#000000" d="M720 864a16 16 0 0 1 2.88 31.744L720 896h-416a16 16 0 0 1-2.88-31.744L304 864h416zM896 128a32 32 0 0 1 32 32v576a32 32 0 0 1-32 32H128a32 32 0 0 1-32-32V160a32 32 0 0 1 32-32h768z m0 32H128v576h128.768c1.696-76.672 15.936-142.272 42.592-196.608-53.216-116.448-34.944-207.712 55.584-267.744 62.08-41.152 149.952-62.176 263.456-63.616h12.512c31.296 0.32 77.344 2.944 138.368 7.904a16 16 0 0 1 14.56 18.112c-21.504 158.752-69.248 270.336-144.192 334.208-76.48 65.184-171.456 73.024-282.272 24.416a16 16 0 1 1 12.832-29.312c100.256 43.968 182.208 37.216 248.672-19.456 63.424-54.08 106.624-148.736 128.832-284.48l1.984-12.96-41.824-2.976A1350.56 1350.56 0 0 0 624.64 240l-5.792 0.032c-107.904 1.376-189.92 20.992-246.176 58.304-70.848 46.976-88.768 114.08-53.344 205.952 54.816-83.68 145.376-134.848 271.072-152.64a16 16 0 0 1 4.48 31.68c-200.384 28.352-301.344 144.448-306.048 352.64L896 736V160z" /></svg>