<?xml version="1.0" standalone="no"?><!DOCTYPE svg PUBLIC "-//W3C//DTD SVG 1.1//EN" "http://www.w3.org/Graphics/SVG/1.1/DTD/svg11.dtd"><svg class="icon" width="200px" height="200.00px" viewBox="0 0 1024 1024" version="1.1" xmlns="http://www.w3.org/2000/svg"><path fill="#000000" d="M277.333333 938.666667H110.933333c-12.8 0-25.6-12.8-25.6-25.6v-166.4c0-25.6-17.066667-42.666667-42.666666-42.666667s-42.666667 17.066667-42.666667 42.666667v166.4C0 972.8 51.2 1024 110.933333 1024h166.4c25.6 0 42.666667-17.066667 42.666667-42.666667s-17.066667-42.666667-42.666667-42.666666zM981.333333 704c-25.6 0-42.666667 17.066667-42.666666 42.666667v166.4c0 17.066667-12.8 25.6-25.6 25.6h-166.4c-25.6 0-42.666667 17.066667-42.666667 42.666666s17.066667 42.666667 42.666667 42.666667h166.4c64 0 110.933333-51.2 110.933333-110.933333v-166.4c0-25.6-17.066667-42.666667-42.666667-42.666667zM913.066667 0h-166.4c-25.6 0-42.666667 17.066667-42.666667 42.666667s17.066667 42.666667 42.666667 42.666666h166.4c12.8 0 25.6 12.8 25.6 25.6v166.4c0 25.6 17.066667 42.666667 42.666666 42.666667s42.666667-17.066667 42.666667-42.666667V110.933333C1024 51.2 972.8 0 913.066667 0zM42.666667 320c25.6 0 42.666667-17.066667 42.666666-42.666667V110.933333c0-12.8 12.8-25.6 25.6-25.6h166.4c25.6 0 42.666667-17.066667 42.666667-42.666666s-17.066667-42.666667-42.666667-42.666667H110.933333C51.2 0 0 51.2 0 110.933333v166.4c0 25.6 17.066667 42.666667 42.666667 42.666667zM546.133333 328.533333c72.533333 0 128-55.466667 128-128s-55.466667-128-128-128-128 55.466667-128 128 59.733333 128 128 128z m0-170.666666c25.6 0 42.666667 17.066667 42.666667 42.666666s-17.066667 42.666667-42.666667 42.666667-42.666667-17.066667-42.666666-42.666667 21.333333-42.666667 42.666666-42.666666zM759.466667 878.933333c21.333333-12.8 25.6-38.4 8.533333-59.733333l-106.666667-153.6-25.6-25.6-110.933333-81.066667 34.133333-119.466666c21.333333 4.266667 42.666667 4.266667 55.466667 8.533333 4.266667 0 8.533333 4.266667 12.8 8.533333l89.6 102.4c17.066667 17.066667 42.666667 21.333333 59.733333 4.266667 17.066667-17.066667 21.333333-42.666667 4.266667-59.733333l-89.6-102.4c-8.533333-17.066667-29.866667-29.866667-51.2-34.133334-25.6-8.533333-68.266667-17.066667-123.733333-17.066666-55.466667 0-98.133333 8.533333-123.733334 17.066666-25.6 4.266667-42.666667 21.333333-59.733333 38.4l-85.333333 106.666667c-12.8 17.066667-12.8 46.933333 8.533333 59.733333 8.533333 4.266667 17.066667 8.533333 25.6 8.533334 12.8 0 25.6-4.266667 34.133333-17.066667l85.333334-106.666667c4.266667-4.266667 8.533333-8.533333 12.8-8.533333 12.8-4.266667 34.133333-8.533333 59.733333-8.533333l-68.266667 226.133333c0 4.266667-4.266667 4.266667-8.533333 8.533333l-115.2 140.8c-12.8 17.066667-12.8 46.933333 4.266667 59.733334 8.533333 8.533333 17.066667 8.533333 25.6 8.533333 12.8 0 25.6-4.266667 34.133333-17.066667l110.933333-136.533333c12.8-12.8 21.333333-25.6 25.6-42.666667l12.8-46.933333 85.333334 64c4.266667 0 4.266667 4.266667 4.266666 4.266667l106.666667 153.6c8.533333 12.8 21.333333 17.066667 34.133333 17.066666 17.066667 4.266667 25.6 4.266667 34.133334 0z" /></svg>